<svg class="svg-icon" style="width: 1em; height: 1em;vertical-align: middle;fill: currentColor;overflow: hidden;" viewBox="0 0 1024 1024" version="1.1" xmlns="http://www.w3.org/2000/svg"><path d="M682.666667 938.666667H213.333333c-72.533333 0-128-55.466667-128-128V341.333333c0-72.533333 55.466667-128 128-128h256c25.6 0 42.666667 17.066667 42.666667 42.666667s-17.066667 42.666667-42.666667 42.666667H213.333333c-25.6 0-42.666667 17.066667-42.666666 42.666666v469.333334c0 25.6 17.066667 42.666667 42.666666 42.666666h469.333334c25.6 0 42.666667-17.066667 42.666666-42.666666v-256c0-25.6 17.066667-42.666667 42.666667-42.666667s42.666667 17.066667 42.666667 42.666667v256c0 72.533333-55.466667 128-128 128zM896 426.666667c-25.6 0-42.666667-17.066667-42.666667-42.666667V170.666667h-213.333333c-25.6 0-42.666667-17.066667-42.666667-42.666667s17.066667-42.666667 42.666667-42.666667h256c25.6 0 42.666667 17.066667 42.666667 42.666667v256c0 25.6-17.066667 42.666667-42.666667 42.666667z"  /><path d="M426.666667 640c-12.8 0-21.333333-4.266667-29.866667-12.8-17.066667-17.066667-17.066667-42.666667 0-59.733333l469.333333-469.333334c17.066667-17.066667 42.666667-17.066667 59.733334 0s17.066667 42.666667 0 59.733334l-469.333334 469.333333c-8.533333 8.533333-17.066667 12.8-29.866666 12.8z"  /></svg>